<?xml version="1.0" encoding="utf-8"?>
<!-- Generator: Adobe Illustrator 23.0.1, SVG Export Plug-In . SVG Version: 6.00 Build 0)  -->
<svg version="1.1" id="Layer_1" xmlns="http://www.w3.org/2000/svg" xmlns:xlink="http://www.w3.org/1999/xlink" x="0px" y="0px"
	 viewBox="0 0 1920 1080" style="enable-background:new 0 0 1920 1080;" xml:space="preserve">
<style type="text/css">
	.st0{fill-rule:evenodd;clip-rule:evenodd;fill:#F7F7F0;}
	.st1{fill-rule:evenodd;clip-rule:evenodd;fill:url(#SVGID_1_);}
	.st2{fill-rule:evenodd;clip-rule:evenodd;fill:url(#SVGID_2_);}
	.st3{fill-rule:evenodd;clip-rule:evenodd;fill:#05252D;}
</style>
<circle class="st0" cx="1169" cy="473" r="81"/>
<radialGradient id="SVGID_1_" cx="971.9833" cy="824.5" r="760.0261" gradientUnits="userSpaceOnUse">
	<stop  offset="0" style="stop-color:#00869C"/>
	<stop  offset="0.7534" style="stop-color:#1DAABB"/>
</radialGradient>
<path class="st1" d="M-5.95,597.99c0,0,149.57-42.34,199.52-33.25s103.84,30.02,145.1,0c44.91-42.77,125.63-103.86,142.08-99.76
	c16.45,4.1,33.05,5.38,51.39,27.21c21.44,11.74,26.46,5.22,45.34-12.09s39.77-29.99,72.55-3.02c0,0,28.38-88.62,45.34-78.6
	c25.52,0.99,33.25,42.32,33.25,42.32s16.98,41.28,33.25,18.14c16.27-23.14,43.47-71.98,63.48-66.51s55.03,34.07,93.71,24.18
	s66.67-34.98,111.85-6.05c45.18,28.93,111.98,121.97,145.1,117.9s121.06-81.62,139.06-78.6c16.82,2.05,60.09,34.81,69.53,42.32
	c15.98,2.45,16.38,7.25,33.25,9.07s42.76,9.48,129.99-24.18c17.6-6.34,34.13-11.63,90.69,21.16s78.61,25.91,126.97,6.05
	s104.67-40.27,129.99-24.18c25.32,16.08,36.28,39.3,36.28,39.3l24.18,737.61L-12,1211.66L-5.95,597.99z"/>
<radialGradient id="SVGID_2_" cx="971.5012" cy="931.7296" r="1384.504" gradientTransform="matrix(1 0 0 0.2532 0 695.7953)" gradientUnits="userSpaceOnUse">
	<stop  offset="0" style="stop-color:#00869C"/>
	<stop  offset="0.7534" style="stop-color:#1D6492"/>
</radialGradient>
<path class="st2" d="M-3.91,732.32c0,0,361.47-82.38,417.37-77.29c55.9,5.09,66.54,72.96,117.48,55.65
	c50.94-17.31,207.24-143.46,262.79-142.21c55.55,1.25,80.55,56.12,204.05,117.48s181.81-31.26,268.97-55.65
	s111.11-54.76,315.35,37.1c20.77,7.85,50.57-2.67,95.84-34.01c45.27-31.34,96.6,7.56,139.12,24.73
	c42.53,17.18,132.94,58.74,132.94,58.74V1295L-7,1264.08L-3.91,732.32z"/>
<path class="st3" d="M1954.54,995l-39.04-223.5l-6.63,51.01l-15.37-88.01l-9.31,71.65c-3.21-1.66-6.31-2.36-9.08-1.61
	c-3.44,0.92-7.2,6.44-11.19,14.68l-8.62-49.33l-13.97,107.54c-2.74,7.29-5.52,14.4-8.32,20.96l-10.69-61.2l-10.12,77.92
	l-27.7-158.61l-19.48,149.97c-3.34-1.34-6.56-2.59-9.69-3.74l-9-51.53l-6.03,46.45c-9.79-2.98-18.49-4.94-26.38-6.08L1690.5,757.5
	l-17.62,135.63c-5.88,1.4-11.48,3.23-17.11,5.23l-5.44-31.17l-3.7,28.46L1622.5,757.5l-22.52,173.35c-3.7,1.63-7.27,2.87-10.78,3.82
	l-20.87-119.48l-15.81,121.67c-3.26-0.19-6.65-0.4-10.21-0.61l-13.98-80.06l-7.93,61.03l-27.9-159.72l-24,184.69l-11.18-63.99
	l-10.43,80.31l-7.57-43.31l-8.15,62.75L1403.5,819.5l-15.17,116.74l-11.83-67.74l-18.06,138.97l-16.12-92.28l-14.19,109.19
	l-9.81-56.19l-8.24,63.42c-0.4,0.09-0.81,0.18-1.21,0.27L1276.5,846.5l-23.83,183.44l-8.34-47.75l-7.5,57.75
	c-1.14,0.03-2.28,0.06-3.41,0.07l-6.08-34.83l-4.53,34.87c-4.64-0.03-9.27-0.12-13.88-0.27l-21.59-123.61l-10.91,83.97L1151.5,857.5
	l-22.73,174.94c-3.4-0.47-6.77-0.96-10.13-1.45L1095.5,898.5l-16.41,126.28c-3.25-0.53-6.47-1.06-9.65-1.57l-28.94-165.7
	l-18.27,140.59l-12.91-73.9l-11.38,87.61l-7.62-43.61l-5.82,44.83c-0.83-0.03-1.64-0.06-2.45-0.09l-16.72-95.74l-12.49,96.17
	c-1.06,0.07-2.11,0.15-3.15,0.23L920.5,846.5l-22.96,176.73c-2.76,0.72-5.52,1.44-8.31,2.15l-18.9-108.19l-11.23,86.46l-7.77-44.46
	l-7.91,60.92l-13.09-74.92l-9.76,75.16c-3.95-1.04-7.75-1.8-11.39-2.32L774.5,819.5l-19.03,146.45L739.5,874.5l-18.73,144.17
	c-0.86-0.18-1.74-0.38-2.62-0.58l-21.82-124.9l-14.86,114.38c-1.02-0.35-2.04-0.69-3.07-1.05l-22.07-126.33L641.54,994
	c-0.19-0.04-0.39-0.09-0.59-0.13L610.5,819.5l-20.15,155.08l-10.02-57.39l-7.03,54.1l-21.8-124.8l-12.01,92.48l-20.32-116.33
	L514,862.41L495.5,756.5l-19.2,147.75l-14.8-84.75l-10.37,79.79c-11.03-8.6-21.01-16.06-29.16-21.61L390.5,697.5l-21.86,168.23
	c-0.75,0.1-1.51,0.2-2.27,0.31l-9.88-56.54l-6.76,52.01l-5.24-30.01l-5.24,40.34c-7.11,1.95-14.05,4.12-20.51,6.32L308.5,819.5
	l-8.51,65.46c-1.75,0.68-3.42,1.33-4.99,1.94L274.5,769.5l-11.86,91.27c-2.75-3.14-5.32-6.02-7.72-8.68L240.5,769.5l-6.54,50.31
	L199.5,622.5l-24.68,189.97c-0.03,0-0.05,0-0.08,0L158.5,719.5l-12.39,95.39c-2.4,0.35-4.86,0.74-7.36,1.16L124.5,734.5l-6.16,47.4
	L90.5,622.5L67.65,798.35L56.5,734.5L42.93,838.97c-2.24,0.64-4.44,1.27-6.6,1.9l-12-68.68l-9.76,75.15
	C-2.75,852.61-14,856.33-14,856.33v499.7l1947,48.75L1921.86,995H1954.54z"/>
</svg>
